# This file uses centimeters as units for non-parametric coordinates.

mtllib Building01.mtl
g default
v 4.072984 0.552073 -0.399158
v 3.897820 0.552073 -0.395515
v 4.072984 0.753174 -0.399158
v 3.897820 0.753174 -0.395515
v 4.082203 0.753174 0.351397
v 3.907039 0.753174 0.355041
v 4.082203 0.552073 0.351397
v 3.907039 0.552073 0.355041
vt 0.375000 0.000000
vt 0.625000 0.000000
vt 0.375000 0.250000
vt 0.625000 0.250000
vt 0.375000 0.500000
vt 0.625000 0.500000
vt 0.375000 0.750000
vt 0.625000 0.750000
vt 0.375000 1.000000
vt 0.625000 1.000000
vt 0.875000 0.000000
vt 0.875000 0.250000
vt 0.125000 0.000000
vt 0.125000 0.250000
vn -0.020795 0.000000 -0.999784
vn -0.020795 0.000000 -0.999784
vn -0.020795 0.000000 -0.999784
vn -0.020795 0.000000 -0.999784
vn 0.000000 1.000000 0.000000
vn 0.000000 1.000000 0.000000
vn 0.000000 1.000000 0.000000
vn 0.000000 1.000000 0.000000
vn 0.020795 0.000000 0.999784
vn 0.020795 0.000000 0.999784
vn 0.020795 0.000000 0.999784
vn 0.020795 0.000000 0.999784
vn 0.000000 -1.000000 0.000000
vn 0.000000 -1.000000 0.000000
vn 0.000000 -1.000000 0.000000
vn 0.000000 -1.000000 0.000000
vn -0.999925 0.000000 0.012282
vn -0.999925 0.000000 0.012282
vn -0.999925 0.000000 0.012282
vn -0.999925 0.000000 0.012282
vn 0.999925 0.000000 -0.012282
vn 0.999925 0.000000 -0.012282
vn 0.999925 0.000000 -0.012282
vn 0.999925 0.000000 -0.012282
s off
g pCube17 group1
usemtl aiStandardSurface1SG
f 1/1/1 2/2/2 4/4/3 3/3/4
f 3/3/5 4/4/6 6/6/7 5/5/8
f 5/5/9 6/6/10 8/8/11 7/7/12
f 7/7/13 8/8/14 2/10/15 1/9/16
f 2/2/17 8/11/18 6/12/19 4/4/20
f 7/13/21 1/1/22 3/3/23 5/14/24
g default
v 4.081378 -0.007467 0.323980
v 3.906176 -0.007467 0.322633
v 4.081378 0.753303 0.323980
v 3.906176 0.753303 0.322633
v 4.073149 0.753303 1.393825
v 3.897946 0.753303 1.392478
v 4.073149 -0.007467 1.393825
v 3.897946 -0.007467 1.392478
vt 0.375000 0.000000
vt 0.625000 0.000000
vt 0.375000 0.250000
vt 0.625000 0.250000
vt 0.375000 0.500000
vt 0.625000 0.500000
vt 0.375000 0.750000
vt 0.625000 0.750000
vt 0.375000 1.000000
vt 0.625000 1.000000
vt 0.875000 0.000000
vt 0.875000 0.250000
vt 0.125000 0.000000
vt 0.125000 0.250000
vn 0.007692 0.000000 -0.999970
vn 0.007692 0.000000 -0.999970
vn 0.007692 0.000000 -0.999970
vn 0.007692 0.000000 -0.999970
vn 0.000000 1.000000 -0.000000
vn 0.000000 1.000000 -0.000000
vn 0.000000 1.000000 -0.000000
vn 0.000000 1.000000 -0.000000
vn -0.007692 0.000000 0.999970
vn -0.007692 0.000000 0.999970
vn -0.007692 0.000000 0.999970
vn -0.007692 0.000000 0.999970
vn 0.000000 -1.000000 0.000000
vn 0.000000 -1.000000 0.000000
vn 0.000000 -1.000000 0.000000
vn 0.000000 -1.000000 0.000000
vn -0.999970 0.000000 -0.007692
vn -0.999970 0.000000 -0.007692
vn -0.999970 0.000000 -0.007692
vn -0.999970 0.000000 -0.007692
vn 0.999970 0.000000 0.007692
vn 0.999970 0.000000 0.007692
vn 0.999970 0.000000 0.007692
vn 0.999970 0.000000 0.007692
s off
g group1 pCube16
usemtl aiStandardSurface1SG
f 9/15/25 10/16/26 12/18/27 11/17/28
f 11/17/29 12/18/30 14/20/31 13/19/32
f 13/19/33 14/20/34 16/22/35 15/21/36
f 15/21/37 16/22/38 10/24/39 9/23/40
f 10/16/41 16/25/42 14/26/43 12/18/44
f 15/27/45 9/15/46 11/17/47 13/28/48
g default
v 4.081378 -0.007467 -1.441261
v 3.906176 -0.007467 -1.442609
v 4.081378 0.753303 -1.441261
v 3.906176 0.753303 -1.442609
v 4.073149 0.753303 -0.371416
v 3.897946 0.753303 -0.372764
v 4.073149 -0.007467 -0.371416
v 3.897946 -0.007467 -0.372764
vt 0.375000 0.000000
vt 0.625000 0.000000
vt 0.375000 0.250000
vt 0.625000 0.250000
vt 0.375000 0.500000
vt 0.625000 0.500000
vt 0.375000 0.750000
vt 0.625000 0.750000
vt 0.375000 1.000000
vt 0.625000 1.000000
vt 0.875000 0.000000
vt 0.875000 0.250000
vt 0.125000 0.000000
vt 0.125000 0.250000
vn 0.007692 0.000000 -0.999970
vn 0.007692 0.000000 -0.999970
vn 0.007692 0.000000 -0.999970
vn 0.007692 0.000000 -0.999970
vn 0.000000 1.000000 -0.000000
vn 0.000000 1.000000 -0.000000
vn 0.000000 1.000000 -0.000000
vn 0.000000 1.000000 -0.000000
vn -0.007692 0.000000 0.999970
vn -0.007692 0.000000 0.999970
vn -0.007692 0.000000 0.999970
vn -0.007692 0.000000 0.999970
vn 0.000000 -1.000000 0.000000
vn 0.000000 -1.000000 0.000000
vn 0.000000 -1.000000 0.000000
vn 0.000000 -1.000000 0.000000
vn -0.999970 0.000000 -0.007692
vn -0.999970 0.000000 -0.007692
vn -0.999970 0.000000 -0.007692
vn -0.999970 0.000000 -0.007692
vn 0.999970 0.000000 0.007692
vn 0.999970 0.000000 0.007692
vn 0.999970 0.000000 0.007692
vn 0.999970 0.000000 0.007692
s off
g group1 pCube15
usemtl aiStandardSurface1SG
f 17/29/49 18/30/50 20/32/51 19/31/52
f 19/31/53 20/32/54 22/34/55 21/33/56
f 21/33/57 22/34/58 24/36/59 23/35/60
f 23/35/61 24/36/62 18/38/63 17/37/64
f 18/30/65 24/39/66 22/40/67 20/32/68
f 23/41/69 17/29/70 19/31/71 21/42/72
g default
v -3.719587 0.552073 -0.395781
v -3.894750 0.552073 -0.392137
v -3.719587 0.753174 -0.395781
v -3.894750 0.753174 -0.392137
v -3.710368 0.753174 0.354775
v -3.885531 0.753174 0.358418
v -3.710368 0.552073 0.354775
v -3.885531 0.552073 0.358418
vt 0.375000 0.000000
vt 0.625000 0.000000
vt 0.375000 0.250000
vt 0.625000 0.250000
vt 0.375000 0.500000
vt 0.625000 0.500000
vt 0.375000 0.750000
vt 0.625000 0.750000
vt 0.375000 1.000000
vt 0.625000 1.000000
vt 0.875000 0.000000
vt 0.875000 0.250000
vt 0.125000 0.000000
vt 0.125000 0.250000
vn -0.020795 0.000000 -0.999784
vn -0.020795 0.000000 -0.999784
vn -0.020795 0.000000 -0.999784
vn -0.020795 0.000000 -0.999784
vn 0.000000 1.000000 0.000000
vn 0.000000 1.000000 0.000000
vn 0.000000 1.000000 0.000000
vn 0.000000 1.000000 0.000000
vn 0.020795 0.000000 0.999784
vn 0.020795 0.000000 0.999784
vn 0.020795 0.000000 0.999784
vn 0.020795 0.000000 0.999784
vn 0.000000 -1.000000 0.000000
vn 0.000000 -1.000000 0.000000
vn 0.000000 -1.000000 0.000000
vn 0.000000 -1.000000 0.000000
vn -0.999925 0.000000 0.012282
vn -0.999925 0.000000 0.012282
vn -0.999925 0.000000 0.012282
vn -0.999925 0.000000 0.012282
vn 0.999925 0.000000 -0.012282
vn 0.999925 0.000000 -0.012282
vn 0.999925 0.000000 -0.012282
vn 0.999925 0.000000 -0.012282
s off
g group1 pCube14
usemtl aiStandardSurface1SG
f 25/43/73 26/44/74 28/46/75 27/45/76
f 27/45/77 28/46/78 30/48/79 29/47/80
f 29/47/81 30/48/82 32/50/83 31/49/84
f 31/49/85 32/50/86 26/52/87 25/51/88
f 26/44/89 32/53/90 30/54/91 28/46/92
f 31/55/93 25/43/94 27/45/95 29/56/96
g default
v -3.711192 -0.007467 -1.437883
v -3.886395 -0.007467 -1.439231
v -3.711192 0.753303 -1.437883
v -3.886395 0.753303 -1.439231
v -3.719422 0.753303 -0.368038
v -3.894624 0.753303 -0.369386
v -3.719422 -0.007467 -0.368038
v -3.894624 -0.007467 -0.369386
vt 0.375000 0.000000
vt 0.625000 0.000000
vt 0.375000 0.250000
vt 0.625000 0.250000
vt 0.375000 0.500000
vt 0.625000 0.500000
vt 0.375000 0.750000
vt 0.625000 0.750000
vt 0.375000 1.000000
vt 0.625000 1.000000
vt 0.875000 0.000000
vt 0.875000 0.250000
vt 0.125000 0.000000
vt 0.125000 0.250000
vn 0.007692 0.000000 -0.999970
vn 0.007692 0.000000 -0.999970
vn 0.007692 0.000000 -0.999970
vn 0.007692 0.000000 -0.999970
vn 0.000000 1.000000 -0.000000
vn 0.000000 1.000000 -0.000000
vn 0.000000 1.000000 -0.000000
vn 0.000000 1.000000 -0.000000
vn -0.007692 0.000000 0.999970
vn -0.007692 0.000000 0.999970
vn -0.007692 0.000000 0.999970
vn -0.007692 0.000000 0.999970
vn 0.000000 -1.000000 0.000000
vn 0.000000 -1.000000 0.000000
vn 0.000000 -1.000000 0.000000
vn 0.000000 -1.000000 0.000000
vn -0.999970 0.000000 -0.007692
vn -0.999970 0.000000 -0.007692
vn -0.999970 0.000000 -0.007692
vn -0.999970 0.000000 -0.007692
vn 0.999970 0.000000 0.007692
vn 0.999970 0.000000 0.007692
vn 0.999970 0.000000 0.007692
vn 0.999970 0.000000 0.007692
s off
g group1 pCube13
usemtl aiStandardSurface1SG
f 33/57/97 34/58/98 36/60/99 35/59/100
f 35/59/101 36/60/102 38/62/103 37/61/104
f 37/61/105 38/62/106 40/64/107 39/63/108
f 39/63/109 40/64/110 34/66/111 33/65/112
f 34/58/113 40/67/114 38/68/115 36/60/116
f 39/69/117 33/57/118 35/59/119 37/70/120
g default
v -3.711192 -0.007467 0.327358
v -3.886395 -0.007467 0.326010
v -3.711192 0.753303 0.327358
v -3.886395 0.753303 0.326010
v -3.719422 0.753303 1.397203
v -3.894624 0.753303 1.395855
v -3.719422 -0.007467 1.397203
v -3.894624 -0.007467 1.395855
vt 0.375000 0.000000
vt 0.625000 0.000000
vt 0.375000 0.250000
vt 0.625000 0.250000
vt 0.375000 0.500000
vt 0.625000 0.500000
vt 0.375000 0.750000
vt 0.625000 0.750000
vt 0.375000 1.000000
vt 0.625000 1.000000
vt 0.875000 0.000000
vt 0.875000 0.250000
vt 0.125000 0.000000
vt 0.125000 0.250000
vn 0.007692 0.000000 -0.999970
vn 0.007692 0.000000 -0.999970
vn 0.007692 0.000000 -0.999970
vn 0.007692 0.000000 -0.999970
vn 0.000000 1.000000 -0.000000
vn 0.000000 1.000000 -0.000000
vn 0.000000 1.000000 -0.000000
vn 0.000000 1.000000 -0.000000
vn -0.007692 0.000000 0.999970
vn -0.007692 0.000000 0.999970
vn -0.007692 0.000000 0.999970
vn -0.007692 0.000000 0.999970
vn 0.000000 -1.000000 0.000000
vn 0.000000 -1.000000 0.000000
vn 0.000000 -1.000000 0.000000
vn 0.000000 -1.000000 0.000000
vn -0.999970 0.000000 -0.007692
vn -0.999970 0.000000 -0.007692
vn -0.999970 0.000000 -0.007692
vn -0.999970 0.000000 -0.007692
vn 0.999970 0.000000 0.007692
vn 0.999970 0.000000 0.007692
vn 0.999970 0.000000 0.007692
vn 0.999970 0.000000 0.007692
s off
g group1 pCube12
usemtl aiStandardSurface1SG
f 41/71/121 42/72/122 44/74/123 43/73/124
f 43/73/125 44/74/126 46/76/127 45/75/128
f 45/75/129 46/76/130 48/78/131 47/77/132
f 47/77/133 48/78/134 42/80/135 41/79/136
f 42/72/137 48/81/138 46/82/139 44/74/140
f 47/83/141 41/71/142 43/73/143 45/84/144
g default
v -1.097169 -0.007467 1.396079
v -1.097883 -0.007467 1.220873
v -1.097169 0.753303 1.396079
v -1.097883 0.753303 1.220873
v -3.891726 0.753303 1.407457
v -3.892439 0.753303 1.232251
v -3.891726 -0.007467 1.407457
v -3.892439 -0.007467 1.232251
vt 0.375000 0.000000
vt 0.625000 0.000000
vt 0.375000 0.250000
vt 0.625000 0.250000
vt 0.375000 0.500000
vt 0.625000 0.500000
vt 0.375000 0.750000
vt 0.625000 0.750000
vt 0.375000 1.000000
vt 0.625000 1.000000
vt 0.875000 0.000000
vt 0.875000 0.250000
vt 0.125000 0.000000
vt 0.125000 0.250000
vn 0.999992 0.000000 -0.004072
vn 0.999992 0.000000 -0.004072
vn 0.999992 0.000000 -0.004072
vn 0.999992 0.000000 -0.004072
vn 0.000000 1.000000 -0.000000
vn 0.000000 1.000000 -0.000000
vn 0.000000 1.000000 -0.000000
vn 0.000000 1.000000 -0.000000
vn -0.999992 0.000000 0.004072
vn -0.999992 0.000000 0.004072
vn -0.999992 0.000000 0.004072
vn -0.999992 0.000000 0.004072
vn 0.000000 -1.000000 0.000000
vn 0.000000 -1.000000 0.000000
vn 0.000000 -1.000000 0.000000
vn 0.000000 -1.000000 0.000000
vn -0.004072 0.000000 -0.999992
vn -0.004072 0.000000 -0.999992
vn -0.004072 0.000000 -0.999992
vn -0.004072 0.000000 -0.999992
vn 0.004072 0.000000 0.999992
vn 0.004072 0.000000 0.999992
vn 0.004072 0.000000 0.999992
vn 0.004072 0.000000 0.999992
s off
g group1 pCube11
usemtl aiStandardSurface1SG
f 49/85/145 50/86/146 52/88/147 51/87/148
f 51/87/149 52/88/150 54/90/151 53/89/152
f 53/89/153 54/90/154 56/92/155 55/91/156
f 55/91/157 56/92/158 50/94/159 49/93/160
f 50/86/161 56/95/162 54/96/163 52/88/164
f 55/97/165 49/85/166 51/87/167 53/98/168
g default
v -1.097169 -0.007467 -1.277379
v -1.097883 -0.007467 -1.452585
v -1.097169 0.753303 -1.277379
v -1.097883 0.753303 -1.452585
v -3.891726 0.753303 -1.266000
v -3.892439 0.753303 -1.441207
v -3.891726 -0.007467 -1.266000
v -3.892439 -0.007467 -1.441207
vt 0.375000 0.000000
vt 0.625000 0.000000
vt 0.375000 0.250000
vt 0.625000 0.250000
vt 0.375000 0.500000
vt 0.625000 0.500000
vt 0.375000 0.750000
vt 0.625000 0.750000
vt 0.375000 1.000000
vt 0.625000 1.000000
vt 0.875000 0.000000
vt 0.875000 0.250000
vt 0.125000 0.000000
vt 0.125000 0.250000
vn 0.999992 0.000000 -0.004072
vn 0.999992 0.000000 -0.004072
vn 0.999992 0.000000 -0.004072
vn 0.999992 0.000000 -0.004072
vn 0.000000 1.000000 -0.000000
vn 0.000000 1.000000 -0.000000
vn 0.000000 1.000000 -0.000000
vn 0.000000 1.000000 -0.000000
vn -0.999992 0.000000 0.004072
vn -0.999992 0.000000 0.004072
vn -0.999992 0.000000 0.004072
vn -0.999992 0.000000 0.004072
vn 0.000000 -1.000000 0.000000
vn 0.000000 -1.000000 0.000000
vn 0.000000 -1.000000 0.000000
vn 0.000000 -1.000000 0.000000
vn -0.004072 0.000000 -0.999992
vn -0.004072 0.000000 -0.999992
vn -0.004072 0.000000 -0.999992
vn -0.004072 0.000000 -0.999992
vn 0.004072 0.000000 0.999992
vn 0.004072 0.000000 0.999992
vn 0.004072 0.000000 0.999992
vn 0.004072 0.000000 0.999992
s off
g group1 pCube10
usemtl aiStandardSurface1SG
f 57/99/169 58/100/170 60/102/171 59/101/172
f 59/101/173 60/102/174 62/104/175 61/103/176
f 61/103/177 62/104/178 64/106/179 63/105/180
f 63/105/181 64/106/182 58/108/183 57/107/184
f 58/100/185 64/109/186 62/110/187 60/102/188
f 63/111/189 57/99/190 59/101/191 61/112/192
g default
v 4.078048 -0.007467 -1.277379
v 4.077335 -0.007467 -1.452585
v 4.078048 0.753303 -1.277379
v 4.077335 0.753303 -1.452585
v 1.283492 0.753303 -1.266000
v 1.282778 0.753303 -1.441207
v 1.283492 -0.007467 -1.266000
v 1.282778 -0.007467 -1.441207
vt 0.375000 0.000000
vt 0.625000 0.000000
vt 0.375000 0.250000
vt 0.625000 0.250000
vt 0.375000 0.500000
vt 0.625000 0.500000
vt 0.375000 0.750000
vt 0.625000 0.750000
vt 0.375000 1.000000
vt 0.625000 1.000000
vt 0.875000 0.000000
vt 0.875000 0.250000
vt 0.125000 0.000000
vt 0.125000 0.250000
vn 0.999992 0.000000 -0.004072
vn 0.999992 0.000000 -0.004072
vn 0.999992 0.000000 -0.004072
vn 0.999992 0.000000 -0.004072
vn 0.000000 1.000000 -0.000000
vn 0.000000 1.000000 -0.000000
vn 0.000000 1.000000 -0.000000
vn 0.000000 1.000000 -0.000000
vn -0.999992 0.000000 0.004072
vn -0.999992 0.000000 0.004072
vn -0.999992 0.000000 0.004072
vn -0.999992 0.000000 0.004072
vn 0.000000 -1.000000 0.000000
vn 0.000000 -1.000000 0.000000
vn 0.000000 -1.000000 0.000000
vn 0.000000 -1.000000 0.000000
vn -0.004072 0.000000 -0.999992
vn -0.004072 0.000000 -0.999992
vn -0.004072 0.000000 -0.999992
vn -0.004072 0.000000 -0.999992
vn 0.004072 0.000000 0.999992
vn 0.004072 0.000000 0.999992
vn 0.004072 0.000000 0.999992
vn 0.004072 0.000000 0.999992
s off
g group1 pCube9
usemtl aiStandardSurface1SG
f 65/113/193 66/114/194 68/116/195 67/115/196
f 67/115/197 68/116/198 70/118/199 69/117/200
f 69/117/201 70/118/202 72/120/203 71/119/204
f 71/119/205 72/120/206 66/122/207 65/121/208
f 66/114/209 72/123/210 70/124/211 68/116/212
f 71/125/213 65/113/214 67/115/215 69/126/216
g default
v 4.078048 -0.007467 1.396079
v 4.077335 -0.007467 1.220873
v 4.078048 0.753303 1.396079
v 4.077335 0.753303 1.220873
v 1.283492 0.753303 1.407457
v 1.282778 0.753303 1.232251
v 1.283492 -0.007467 1.407457
v 1.282778 -0.007467 1.232251
vt 0.375000 0.000000
vt 0.625000 0.000000
vt 0.375000 0.250000
vt 0.625000 0.250000
vt 0.375000 0.500000
vt 0.625000 0.500000
vt 0.375000 0.750000
vt 0.625000 0.750000
vt 0.375000 1.000000
vt 0.625000 1.000000
vt 0.875000 0.000000
vt 0.875000 0.250000
vt 0.125000 0.000000
vt 0.125000 0.250000
vn 0.999992 0.000000 -0.004072
vn 0.999992 0.000000 -0.004072
vn 0.999992 0.000000 -0.004072
vn 0.999992 0.000000 -0.004072
vn 0.000000 1.000000 -0.000000
vn 0.000000 1.000000 -0.000000
vn 0.000000 1.000000 -0.000000
vn 0.000000 1.000000 -0.000000
vn -0.999992 0.000000 0.004072
vn -0.999992 0.000000 0.004072
vn -0.999992 0.000000 0.004072
vn -0.999992 0.000000 0.004072
vn 0.000000 -1.000000 0.000000
vn 0.000000 -1.000000 0.000000
vn 0.000000 -1.000000 0.000000
vn 0.000000 -1.000000 0.000000
vn -0.004072 0.000000 -0.999992
vn -0.004072 0.000000 -0.999992
vn -0.004072 0.000000 -0.999992
vn -0.004072 0.000000 -0.999992
vn 0.004072 0.000000 0.999992
vn 0.004072 0.000000 0.999992
vn 0.004072 0.000000 0.999992
vn 0.004072 0.000000 0.999992
s off
g group1 pCube8
usemtl aiStandardSurface1SG
f 73/127/217 74/128/218 76/130/219 75/129/220
f 75/129/221 76/130/222 78/132/223 77/131/224
f 77/131/225 78/132/226 80/134/227 79/133/228
f 79/133/229 80/134/230 74/136/231 73/135/232
f 74/128/233 80/137/234 78/138/235 76/130/236
f 79/139/237 73/127/238 75/129/239 77/140/240
g default
v -5.069086 -0.007467 -2.468588
v -5.244289 -0.007467 -2.469936
v -5.069086 0.753303 -2.468588
v -5.244289 0.753303 -2.469936
v -5.107642 0.753303 2.543658
v -5.282844 0.753303 2.542310
v -5.107642 -0.007467 2.543658
v -5.282844 -0.007467 2.542310
vt 0.375000 0.000000
vt 0.625000 0.000000
vt 0.375000 0.250000
vt 0.625000 0.250000
vt 0.375000 0.500000
vt 0.625000 0.500000
vt 0.375000 0.750000
vt 0.625000 0.750000
vt 0.375000 1.000000
vt 0.625000 1.000000
vt 0.875000 0.000000
vt 0.875000 0.250000
vt 0.125000 0.000000
vt 0.125000 0.250000
vn 0.007692 0.000000 -0.999970
vn 0.007692 0.000000 -0.999970
vn 0.007692 0.000000 -0.999970
vn 0.007692 0.000000 -0.999970
vn 0.000000 1.000000 -0.000000
vn 0.000000 1.000000 -0.000000
vn 0.000000 1.000000 -0.000000
vn 0.000000 1.000000 -0.000000
vn -0.007692 0.000000 0.999970
vn -0.007692 0.000000 0.999970
vn -0.007692 0.000000 0.999970
vn -0.007692 0.000000 0.999970
vn 0.000000 -1.000000 0.000000
vn 0.000000 -1.000000 0.000000
vn 0.000000 -1.000000 0.000000
vn 0.000000 -1.000000 0.000000
vn -0.999970 0.000000 -0.007692
vn -0.999970 0.000000 -0.007692
vn -0.999970 0.000000 -0.007692
vn -0.999970 0.000000 -0.007692
vn 0.999970 0.000000 0.007692
vn 0.999970 0.000000 0.007692
vn 0.999970 0.000000 0.007692
vn 0.999970 0.000000 0.007692
s off
g group1 pCube7
usemtl aiStandardSurface1SG
f 81/141/241 82/142/242 84/144/243 83/143/244
f 83/143/245 84/144/246 86/146/247 85/145/248
f 85/145/249 86/146/250 88/148/251 87/147/252
f 87/147/253 88/148/254 82/150/255 81/149/256
f 82/142/257 88/151/258 86/152/259 84/144/260
f 87/153/261 81/141/262 83/143/263 85/154/264
g default
v 5.286413 -0.007467 -2.495343
v 5.111210 -0.007467 -2.496690
v 5.286413 0.753303 -2.495343
v 5.111210 0.753303 -2.496690
v 5.247857 0.753303 2.516903
v 5.072655 0.753303 2.515556
v 5.247857 -0.007467 2.516903
v 5.072655 -0.007467 2.515556
vt 0.375000 0.000000
vt 0.625000 0.000000
vt 0.375000 0.250000
vt 0.625000 0.250000
vt 0.375000 0.500000
vt 0.625000 0.500000
vt 0.375000 0.750000
vt 0.625000 0.750000
vt 0.375000 1.000000
vt 0.625000 1.000000
vt 0.875000 0.000000
vt 0.875000 0.250000
vt 0.125000 0.000000
vt 0.125000 0.250000
vn 0.007692 0.000000 -0.999970
vn 0.007692 0.000000 -0.999970
vn 0.007692 0.000000 -0.999970
vn 0.007692 0.000000 -0.999970
vn 0.000000 1.000000 -0.000000
vn 0.000000 1.000000 -0.000000
vn 0.000000 1.000000 -0.000000
vn 0.000000 1.000000 -0.000000
vn -0.007692 0.000000 0.999970
vn -0.007692 0.000000 0.999970
vn -0.007692 0.000000 0.999970
vn -0.007692 0.000000 0.999970
vn 0.000000 -1.000000 0.000000
vn 0.000000 -1.000000 0.000000
vn 0.000000 -1.000000 0.000000
vn 0.000000 -1.000000 0.000000
vn -0.999970 0.000000 -0.007692
vn -0.999970 0.000000 -0.007692
vn -0.999970 0.000000 -0.007692
vn -0.999970 0.000000 -0.007692
vn 0.999970 0.000000 0.007692
vn 0.999970 0.000000 0.007692
vn 0.999970 0.000000 0.007692
vn 0.999970 0.000000 0.007692
s off
g group1 pCube6
usemtl aiStandardSurface1SG
f 89/155/265 90/156/266 92/158/267 91/157/268
f 91/157/269 92/158/270 94/160/271 93/159/272
f 93/159/273 94/160/274 96/162/275 95/161/276
f 95/161/277 96/162/278 90/164/279 89/163/280
f 90/156/281 96/165/282 94/166/283 92/158/284
f 95/167/285 89/155/286 91/157/287 93/168/288
g default
v 5.135136 -0.007467 2.500438
v 5.134423 -0.007467 2.325231
v 5.135136 0.753303 2.500438
v 5.134423 0.753303 2.325231
v -5.111734 0.753303 2.542160
v -5.112447 0.753303 2.366953
v -5.111734 -0.007467 2.542160
v -5.112447 -0.007467 2.366953
vt 0.375000 0.000000
vt 0.625000 0.000000
vt 0.375000 0.250000
vt 0.625000 0.250000
vt 0.375000 0.500000
vt 0.625000 0.500000
vt 0.375000 0.750000
vt 0.625000 0.750000
vt 0.375000 1.000000
vt 0.625000 1.000000
vt 0.875000 0.000000
vt 0.875000 0.250000
vt 0.125000 0.000000
vt 0.125000 0.250000
vn 0.999992 0.000000 -0.004072
vn 0.999992 0.000000 -0.004072
vn 0.999992 0.000000 -0.004072
vn 0.999992 0.000000 -0.004072
vn 0.000000 1.000000 -0.000000
vn 0.000000 1.000000 -0.000000
vn 0.000000 1.000000 -0.000000
vn 0.000000 1.000000 -0.000000
vn -0.999992 0.000000 0.004072
vn -0.999992 0.000000 0.004072
vn -0.999992 0.000000 0.004072
vn -0.999992 0.000000 0.004072
vn 0.000000 -1.000000 0.000000
vn 0.000000 -1.000000 0.000000
vn 0.000000 -1.000000 0.000000
vn 0.000000 -1.000000 0.000000
vn -0.004072 0.000000 -0.999992
vn -0.004072 0.000000 -0.999992
vn -0.004072 0.000000 -0.999992
vn -0.004072 0.000000 -0.999992
vn 0.004072 0.000000 0.999992
vn 0.004072 0.000000 0.999992
vn 0.004072 0.000000 0.999992
vn 0.004072 0.000000 0.999992
s off
g group1 pCube5
usemtl aiStandardSurface1SG
f 97/169/289 98/170/290 100/172/291 99/171/292
f 99/171/293 100/172/294 102/174/295 101/173/296
f 101/173/297 102/174/298 104/176/299 103/175/300
f 103/175/301 104/176/302 98/178/303 97/177/304
f 98/170/305 104/179/306 102/180/307 100/172/308
f 103/181/309 97/169/310 99/171/311 101/182/312
g default
v 5.135136 -0.007467 -2.323272
v 5.134423 -0.007467 -2.498478
v 5.135136 0.753303 -2.323272
v 5.134423 0.753303 -2.498478
v -5.111734 0.753303 -2.281550
v -5.112447 0.753303 -2.456756
v -5.111734 -0.007467 -2.281550
v -5.112447 -0.007467 -2.456756
vt 0.375000 0.000000
vt 0.625000 0.000000
vt 0.375000 0.250000
vt 0.625000 0.250000
vt 0.375000 0.500000
vt 0.625000 0.500000
vt 0.375000 0.750000
vt 0.625000 0.750000
vt 0.375000 1.000000
vt 0.625000 1.000000
vt 0.875000 0.000000
vt 0.875000 0.250000
vt 0.125000 0.000000
vt 0.125000 0.250000
vn 0.999992 0.000000 -0.004072
vn 0.999992 0.000000 -0.004072
vn 0.999992 0.000000 -0.004072
vn 0.999992 0.000000 -0.004072
vn 0.000000 1.000000 -0.000000
vn 0.000000 1.000000 -0.000000
vn 0.000000 1.000000 -0.000000
vn 0.000000 1.000000 -0.000000
vn -0.999992 0.000000 0.004072
vn -0.999992 0.000000 0.004072
vn -0.999992 0.000000 0.004072
vn -0.999992 0.000000 0.004072
vn 0.000000 -1.000000 0.000000
vn 0.000000 -1.000000 0.000000
vn 0.000000 -1.000000 0.000000
vn 0.000000 -1.000000 0.000000
vn -0.004072 0.000000 -0.999992
vn -0.004072 0.000000 -0.999992
vn -0.004072 0.000000 -0.999992
vn -0.004072 0.000000 -0.999992
vn 0.004072 0.000000 0.999992
vn 0.004072 0.000000 0.999992
vn 0.004072 0.000000 0.999992
vn 0.004072 0.000000 0.999992
s off
g group1 pCube4
usemtl aiStandardSurface1SG
f 105/183/313 106/184/314 108/186/315 107/185/316
f 107/185/317 108/186/318 110/188/319 109/187/320
f 109/187/321 110/188/322 112/190/323 111/189/324
f 111/189/325 112/190/326 106/192/327 105/191/328
f 106/184/329 112/193/330 110/194/331 108/186/332
f 111/195/333 105/183/334 107/185/335 109/196/336
g default
v -1.510437 -0.007467 1.419064
v -1.087151 -0.007467 1.419064
v -1.510437 0.753303 1.419064
v -1.087151 0.753303 1.419064
v -1.510437 0.753303 -1.449521
v -1.087151 0.753303 -1.449521
v -1.510437 -0.007467 -1.449521
v -1.087151 -0.007467 -1.449521
vt 0.375000 0.000000
vt 0.625000 0.000000
vt 0.375000 0.250000
vt 0.625000 0.250000
vt 0.375000 0.500000
vt 0.625000 0.500000
vt 0.375000 0.750000
vt 0.625000 0.750000
vt 0.375000 1.000000
vt 0.625000 1.000000
vt 0.875000 0.000000
vt 0.875000 0.250000
vt 0.125000 0.000000
vt 0.125000 0.250000
vn 0.000000 0.000000 1.000000
vn 0.000000 0.000000 1.000000
vn 0.000000 0.000000 1.000000
vn 0.000000 0.000000 1.000000
vn 0.000000 1.000000 0.000000
vn 0.000000 1.000000 0.000000
vn 0.000000 1.000000 0.000000
vn 0.000000 1.000000 0.000000
vn 0.000000 0.000000 -1.000000
vn 0.000000 0.000000 -1.000000
vn 0.000000 0.000000 -1.000000
vn 0.000000 0.000000 -1.000000
vn 0.000000 -1.000000 0.000000
vn 0.000000 -1.000000 0.000000
vn 0.000000 -1.000000 0.000000
vn 0.000000 -1.000000 0.000000
vn 1.000000 0.000000 0.000000
vn 1.000000 0.000000 0.000000
vn 1.000000 0.000000 0.000000
vn 1.000000 0.000000 0.000000
vn -1.000000 0.000000 0.000000
vn -1.000000 0.000000 0.000000
vn -1.000000 0.000000 0.000000
vn -1.000000 0.000000 0.000000
s off
g group1 pCube3
usemtl aiStandardSurface1SG
f 113/197/337 114/198/338 116/200/339 115/199/340
f 115/199/341 116/200/342 118/202/343 117/201/344
f 117/201/345 118/202/346 120/204/347 119/203/348
f 119/203/349 120/204/350 114/206/351 113/205/352
f 114/198/353 120/207/354 118/208/355 116/200/356
f 119/209/357 113/197/358 115/199/359 117/210/360
g default
v 1.270574 -0.004586 1.408199
v 1.690654 -0.004586 1.408199
v 1.270574 0.750422 1.408199
v 1.690654 0.750422 1.408199
v 1.270574 0.750422 -1.438656
v 1.690654 0.750422 -1.438656
v 1.270574 -0.004586 -1.438656
v 1.690654 -0.004586 -1.438656
vt 0.375000 0.000000
vt 0.625000 0.000000
vt 0.375000 0.250000
vt 0.625000 0.250000
vt 0.375000 0.500000
vt 0.625000 0.500000
vt 0.375000 0.750000
vt 0.625000 0.750000
vt 0.375000 1.000000
vt 0.625000 1.000000
vt 0.875000 0.000000
vt 0.875000 0.250000
vt 0.125000 0.000000
vt 0.125000 0.250000
vn 0.000000 0.000000 1.000000
vn 0.000000 0.000000 1.000000
vn 0.000000 0.000000 1.000000
vn 0.000000 0.000000 1.000000
vn 0.000000 1.000000 0.000000
vn 0.000000 1.000000 0.000000
vn 0.000000 1.000000 0.000000
vn 0.000000 1.000000 0.000000
vn 0.000000 0.000000 -1.000000
vn 0.000000 0.000000 -1.000000
vn 0.000000 0.000000 -1.000000
vn 0.000000 0.000000 -1.000000
vn 0.000000 -1.000000 0.000000
vn 0.000000 -1.000000 0.000000
vn 0.000000 -1.000000 0.000000
vn 0.000000 -1.000000 0.000000
vn 1.000000 0.000000 0.000000
vn 1.000000 0.000000 0.000000
vn 1.000000 0.000000 0.000000
vn 1.000000 0.000000 0.000000
vn -1.000000 0.000000 0.000000
vn -1.000000 0.000000 0.000000
vn -1.000000 0.000000 0.000000
vn -1.000000 0.000000 0.000000
s off
g group1 pCube2
usemtl aiStandardSurface1SG
f 121/211/361 122/212/362 124/214/363 123/213/364
f 123/213/365 124/214/366 126/216/367 125/215/368
f 125/215/369 126/216/370 128/218/371 127/217/372
f 127/217/373 128/218/374 122/220/375 121/219/376
f 122/212/377 128/221/378 126/222/379 124/214/380
f 127/223/381 121/211/382 123/213/383 125/224/384
g default
v -5.223496 -0.017373 2.503990
v 5.242762 -0.017373 2.503990
v -5.223496 0.017373 2.503990
v 5.242762 0.017373 2.503990
v -5.223496 0.017373 -2.447367
v 5.242762 0.017373 -2.447367
v -5.223496 -0.017373 -2.447367
v 5.242762 -0.017373 -2.447367
vt 0.375000 0.000000
vt 0.625000 0.000000
vt 0.375000 0.250000
vt 0.625000 0.250000
vt 0.375000 0.500000
vt 0.625000 0.500000
vt 0.375000 0.750000
vt 0.625000 0.750000
vt 0.375000 1.000000
vt 0.625000 1.000000
vt 0.875000 0.000000
vt 0.875000 0.250000
vt 0.125000 0.000000
vt 0.125000 0.250000
vn 0.000000 0.000000 1.000000
vn 0.000000 0.000000 1.000000
vn 0.000000 0.000000 1.000000
vn 0.000000 0.000000 1.000000
vn 0.000000 1.000000 0.000000
vn 0.000000 1.000000 0.000000
vn 0.000000 1.000000 0.000000
vn 0.000000 1.000000 0.000000
vn 0.000000 0.000000 -1.000000
vn 0.000000 0.000000 -1.000000
vn 0.000000 0.000000 -1.000000
vn 0.000000 0.000000 -1.000000
vn 0.000000 -1.000000 0.000000
vn 0.000000 -1.000000 0.000000
vn 0.000000 -1.000000 0.000000
vn 0.000000 -1.000000 0.000000
vn 1.000000 0.000000 0.000000
vn 1.000000 0.000000 0.000000
vn 1.000000 0.000000 0.000000
vn 1.000000 0.000000 0.000000
vn -1.000000 0.000000 0.000000
vn -1.000000 0.000000 0.000000
vn -1.000000 0.000000 0.000000
vn -1.000000 0.000000 0.000000
s off
g group1 pCube1
usemtl initialShadingGroup
f 129/225/385 130/226/386 132/228/387 131/227/388
f 131/227/389 132/228/390 134/230/391 133/229/392
f 133/229/393 134/230/394 136/232/395 135/231/396
f 135/231/397 136/232/398 130/234/399 129/233/400
f 130/226/401 136/235/402 134/236/403 132/228/404
f 135/237/405 129/225/406 131/227/407 133/238/408
