# This file uses centimeters as units for non-parametric coordinates.

mtllib Watch.mtl
g default
v -0.709456 0.985785 1.237248
v -0.728568 0.965094 1.181968
v -0.758334 0.932866 1.138097
v -0.795842 0.892257 1.109930
v -0.837420 0.847242 1.100224
v -0.878998 0.802227 1.109930
v -0.916506 0.761618 1.138097
v -0.946273 0.729390 1.181968
v -0.965384 0.708699 1.237248
v -0.971969 0.701569 1.298527
v -0.965384 0.708699 1.359806
v -0.946273 0.729390 1.415087
v -0.916506 0.761618 1.458958
v -0.878998 0.802227 1.487125
v -0.837420 0.847242 1.496830
v -0.795842 0.892257 1.487125
v -0.758334 0.932866 1.458958
v -0.728568 0.965094 1.415087
v -0.709456 0.985785 1.359806
v -0.702871 0.992915 1.298527
v -0.899466 1.161286 1.237248
v -0.918578 1.140595 1.181968
v -0.948344 1.108367 1.138097
v -0.985852 1.067759 1.109930
v -1.027430 1.022743 1.100224
v -1.069008 0.977728 1.109930
v -1.106516 0.937119 1.138097
v -1.136283 0.904891 1.181968
v -1.155394 0.884200 1.237248
v -1.161980 0.877070 1.298527
v -1.155394 0.884200 1.359806
v -1.136283 0.904891 1.415087
v -1.106516 0.937119 1.458958
v -1.069008 0.977728 1.487125
v -1.027430 1.022743 1.496830
v -0.985852 1.067758 1.487125
v -0.948344 1.108367 1.458958
v -0.918578 1.140595 1.415087
v -0.899466 1.161286 1.359806
v -0.892881 1.168416 1.298527
v -0.837420 0.847242 1.298527
v -1.027430 1.022743 1.298527
vt 0.648603 0.107966
vt 0.626409 0.064408
vt 0.591842 0.029841
vt 0.548284 0.007647
vt 0.500000 -0.000000
vt 0.451716 0.007647
vt 0.408159 0.029841
vt 0.373591 0.064409
vt 0.351397 0.107966
vt 0.343750 0.156250
vt 0.351397 0.204534
vt 0.373591 0.248091
vt 0.408159 0.282659
vt 0.451716 0.304853
vt 0.500000 0.312500
vt 0.548284 0.304853
vt 0.591841 0.282659
vt 0.626409 0.248091
vt 0.648603 0.204534
vt 0.656250 0.156250
vt 0.375000 0.312500
vt 0.387500 0.312500
vt 0.400000 0.312500
vt 0.412500 0.312500
vt 0.425000 0.312500
vt 0.437500 0.312500
vt 0.450000 0.312500
vt 0.462500 0.312500
vt 0.475000 0.312500
vt 0.487500 0.312500
vt 0.500000 0.312500
vt 0.512500 0.312500
vt 0.525000 0.312500
vt 0.537500 0.312500
vt 0.550000 0.312500
vt 0.562500 0.312500
vt 0.575000 0.312500
vt 0.587500 0.312500
vt 0.600000 0.312500
vt 0.612500 0.312500
vt 0.625000 0.312500
vt 0.375000 0.688440
vt 0.387500 0.688440
vt 0.400000 0.688440
vt 0.412500 0.688440
vt 0.425000 0.688440
vt 0.437500 0.688440
vt 0.450000 0.688440
vt 0.462500 0.688440
vt 0.475000 0.688440
vt 0.487500 0.688440
vt 0.500000 0.688440
vt 0.512500 0.688440
vt 0.525000 0.688440
vt 0.537500 0.688440
vt 0.550000 0.688440
vt 0.562500 0.688440
vt 0.575000 0.688440
vt 0.587500 0.688440
vt 0.600000 0.688440
vt 0.612500 0.688440
vt 0.625000 0.688440
vt 0.648603 0.795466
vt 0.626409 0.751908
vt 0.591842 0.717341
vt 0.548284 0.695147
vt 0.500000 0.687500
vt 0.451716 0.695147
vt 0.408159 0.717341
vt 0.373591 0.751909
vt 0.351397 0.795466
vt 0.343750 0.843750
vt 0.351397 0.892034
vt 0.373591 0.935591
vt 0.408159 0.970159
vt 0.451716 0.992353
vt 0.500000 1.000000
vt 0.548284 0.992353
vt 0.591841 0.970159
vt 0.626409 0.935591
vt 0.648603 0.892034
vt 0.656250 0.843750
vt 0.500000 0.150000
vt 0.500000 0.837500
vn 0.645296 0.698644 -0.309016
vn 0.548921 0.594301 -0.587785
vn 0.548921 0.594302 -0.587785
vn 0.645296 0.698644 -0.309016
vn 0.398814 0.431785 -0.809017
vn 0.398814 0.431785 -0.809017
vn 0.209669 0.227003 -0.951056
vn 0.209669 0.227003 -0.951056
vn -0.000000 -0.000000 -1.000000
vn -0.000000 -0.000000 -1.000000
vn -0.209669 -0.227003 -0.951057
vn -0.209669 -0.227003 -0.951057
vn -0.398815 -0.431785 -0.809017
vn -0.398815 -0.431785 -0.809017
vn -0.548921 -0.594302 -0.587785
vn -0.548921 -0.594302 -0.587785
vn -0.645295 -0.698643 -0.309017
vn -0.645295 -0.698643 -0.309017
vn -0.678504 -0.734597 0.000000
vn -0.678504 -0.734597 0.000000
vn -0.645295 -0.698643 0.309017
vn -0.645295 -0.698643 0.309017
vn -0.548921 -0.594301 0.587785
vn -0.548921 -0.594301 0.587785
vn -0.398814 -0.431785 0.809017
vn -0.398814 -0.431785 0.809017
vn -0.209669 -0.227003 0.951057
vn -0.209669 -0.227003 0.951057
vn 0.000000 0.000000 1.000000
vn 0.000000 0.000000 1.000000
vn 0.209669 0.227003 0.951057
vn 0.209669 0.227003 0.951057
vn 0.398814 0.431785 0.809017
vn 0.398814 0.431785 0.809017
vn 0.548921 0.594301 0.587785
vn 0.548921 0.594301 0.587785
vn 0.645295 0.698643 0.309017
vn 0.645295 0.698643 0.309017
vn 0.678504 0.734597 0.000001
vn 0.678504 0.734597 0.000001
vn 0.734597 -0.678504 0.000000
vn 0.734597 -0.678504 0.000000
vn 0.734597 -0.678504 0.000000
vn 0.734597 -0.678504 0.000000
vn 0.734597 -0.678504 0.000000
vn 0.734597 -0.678504 0.000000
vn 0.734597 -0.678504 0.000000
vn 0.734597 -0.678504 0.000000
vn 0.734597 -0.678504 0.000000
vn 0.734597 -0.678504 0.000000
vn 0.734597 -0.678504 0.000000
vn 0.734597 -0.678504 0.000000
vn 0.734597 -0.678504 0.000000
vn 0.734597 -0.678504 0.000000
vn 0.734597 -0.678504 0.000000
vn 0.734597 -0.678504 0.000000
vn 0.734597 -0.678504 0.000000
vn 0.734597 -0.678504 0.000000
vn 0.734597 -0.678504 0.000000
vn 0.734597 -0.678504 0.000000
vn 0.734597 -0.678504 0.000000
vn -0.734597 0.678504 0.000001
vn -0.734597 0.678503 -0.000001
vn -0.734597 0.678504 0.000000
vn -0.734597 0.678503 -0.000001
vn -0.734597 0.678504 -0.000001
vn -0.734597 0.678504 -0.000001
vn -0.734597 0.678503 -0.000001
vn -0.734597 0.678503 -0.000000
vn -0.734597 0.678503 -0.000000
vn -0.734597 0.678503 -0.000000
vn -0.734597 0.678503 0.000000
vn -0.734597 0.678503 0.000000
vn -0.734597 0.678503 0.000000
vn -0.734597 0.678504 0.000000
vn -0.734597 0.678503 0.000001
vn -0.734597 0.678504 0.000001
vn -0.734597 0.678504 0.000001
vn -0.734597 0.678504 0.000000
vn -0.734597 0.678504 0.000000
vn -0.734597 0.678504 0.000000
vn -0.734597 0.678504 0.000001
s 1
g Button1
usemtl initialShadingGroup
f 1/21/1 2/22/2 22/43/3 21/42/4
f 2/22/2 3/23/5 23/44/6 22/43/3
f 3/23/5 4/24/7 24/45/8 23/44/6
f 4/24/7 5/25/9 25/46/10 24/45/8
f 5/25/9 6/26/11 26/47/12 25/46/10
f 6/26/11 7/27/13 27/48/14 26/47/12
f 7/27/13 8/28/15 28/49/16 27/48/14
f 8/28/15 9/29/17 29/50/18 28/49/16
f 9/29/17 10/30/19 30/51/20 29/50/18
f 10/30/19 11/31/21 31/52/22 30/51/20
f 11/31/21 12/32/23 32/53/24 31/52/22
f 12/32/23 13/33/25 33/54/26 32/53/24
f 13/33/25 14/34/27 34/55/28 33/54/26
f 14/34/27 15/35/29 35/56/30 34/55/28
f 15/35/29 16/36/31 36/57/32 35/56/30
f 16/36/31 17/37/33 37/58/34 36/57/32
f 17/37/33 18/38/35 38/59/36 37/58/34
f 18/38/35 19/39/37 39/60/38 38/59/36
f 19/39/37 20/40/39 40/61/40 39/60/38
f 20/40/39 1/41/1 21/62/4 40/61/40
s 2
f 2/2/41 1/1/42 41/83/43
f 3/3/44 2/2/41 41/83/43
f 4/4/45 3/3/44 41/83/43
f 5/5/46 4/4/45 41/83/43
f 6/6/47 5/5/46 41/83/43
f 7/7/48 6/6/47 41/83/43
f 8/8/49 7/7/48 41/83/43
f 9/9/50 8/8/49 41/83/43
f 10/10/51 9/9/50 41/83/43
f 11/11/52 10/10/51 41/83/43
f 12/12/53 11/11/52 41/83/43
f 13/13/54 12/12/53 41/83/43
f 14/14/55 13/13/54 41/83/43
f 15/15/56 14/14/55 41/83/43
f 16/16/57 15/15/56 41/83/43
f 17/17/58 16/16/57 41/83/43
f 18/18/59 17/17/58 41/83/43
f 19/19/60 18/18/59 41/83/43
f 20/20/61 19/19/60 41/83/43
f 1/1/42 20/20/61 41/83/43
s 3
f 21/81/62 22/80/63 42/84/64
f 22/80/63 23/79/65 42/84/64
f 23/79/65 24/78/66 42/84/64
f 24/78/66 25/77/67 42/84/64
f 25/77/67 26/76/68 42/84/64
f 26/76/68 27/75/69 42/84/64
f 27/75/69 28/74/70 42/84/64
f 28/74/70 29/73/71 42/84/64
f 29/73/71 30/72/72 42/84/64
f 30/72/72 31/71/73 42/84/64
f 31/71/73 32/70/74 42/84/64
f 32/70/74 33/69/75 42/84/64
f 33/69/75 34/68/76 42/84/64
f 34/68/76 35/67/77 42/84/64
f 35/67/77 36/66/78 42/84/64
f 36/66/78 37/65/79 42/84/64
f 37/65/79 38/64/80 42/84/64
f 38/64/80 39/63/81 42/84/64
f 39/63/81 40/82/82 42/84/64
f 40/82/82 21/81/62 42/84/64
g default
v 0.912414 0.706930 1.237248
v 0.894821 0.728926 1.181968
v 0.867419 0.763186 1.138097
v 0.832890 0.806357 1.109930
v 0.794614 0.854212 1.100224
v 0.756339 0.902067 1.109930
v 0.721810 0.945238 1.138097
v 0.694408 0.979498 1.181968
v 0.676815 1.001495 1.237248
v 0.670752 1.009074 1.298527
v 0.676815 1.001495 1.359806
v 0.694408 0.979498 1.415087
v 0.721810 0.945238 1.458958
v 0.756339 0.902067 1.487125
v 0.794614 0.854212 1.496830
v 0.832890 0.806357 1.487125
v 0.867419 0.763187 1.458958
v 0.894821 0.728926 1.415087
v 0.912414 0.706930 1.359806
v 0.918476 0.699350 1.298527
v 1.114411 0.868491 1.237248
v 1.096817 0.890487 1.181968
v 1.069415 0.924748 1.138097
v 1.034886 0.967918 1.109930
v 0.996611 1.015773 1.100224
v 0.958335 1.063628 1.109930
v 0.923806 1.106799 1.138097
v 0.896404 1.141059 1.181968
v 0.878811 1.163056 1.237248
v 0.872749 1.170635 1.298527
v 0.878811 1.163056 1.359806
v 0.896404 1.141059 1.415087
v 0.923806 1.106799 1.458958
v 0.958335 1.063628 1.487125
v 0.996611 1.015773 1.496830
v 1.034886 0.967918 1.487125
v 1.069415 0.924748 1.458958
v 1.096817 0.890487 1.415087
v 1.114410 0.868491 1.359806
v 1.120473 0.860911 1.298527
v 0.794614 0.854212 1.298527
v 0.996611 1.015773 1.298527
vt 0.648603 0.107966
vt 0.626409 0.064408
vt 0.591842 0.029841
vt 0.548284 0.007647
vt 0.500000 -0.000000
vt 0.451716 0.007647
vt 0.408159 0.029841
vt 0.373591 0.064409
vt 0.351397 0.107966
vt 0.343750 0.156250
vt 0.351397 0.204534
vt 0.373591 0.248091
vt 0.408159 0.282659
vt 0.451716 0.304853
vt 0.500000 0.312500
vt 0.548284 0.304853
vt 0.591841 0.282659
vt 0.626409 0.248091
vt 0.648603 0.204534
vt 0.656250 0.156250
vt 0.375000 0.312500
vt 0.387500 0.312500
vt 0.400000 0.312500
vt 0.412500 0.312500
vt 0.425000 0.312500
vt 0.437500 0.312500
vt 0.450000 0.312500
vt 0.462500 0.312500
vt 0.475000 0.312500
vt 0.487500 0.312500
vt 0.500000 0.312500
vt 0.512500 0.312500
vt 0.525000 0.312500
vt 0.537500 0.312500
vt 0.550000 0.312500
vt 0.562500 0.312500
vt 0.575000 0.312500
vt 0.587500 0.312500
vt 0.600000 0.312500
vt 0.612500 0.312500
vt 0.625000 0.312500
vt 0.375000 0.688440
vt 0.387500 0.688440
vt 0.400000 0.688440
vt 0.412500 0.688440
vt 0.425000 0.688440
vt 0.437500 0.688440
vt 0.450000 0.688440
vt 0.462500 0.688440
vt 0.475000 0.688440
vt 0.487500 0.688440
vt 0.500000 0.688440
vt 0.512500 0.688440
vt 0.525000 0.688440
vt 0.537500 0.688440
vt 0.550000 0.688440
vt 0.562500 0.688440
vt 0.575000 0.688440
vt 0.587500 0.688440
vt 0.600000 0.688440
vt 0.612500 0.688440
vt 0.625000 0.688440
vt 0.648603 0.795466
vt 0.626409 0.751908
vt 0.591842 0.717341
vt 0.548284 0.695147
vt 0.500000 0.687500
vt 0.451716 0.695147
vt 0.408159 0.717341
vt 0.373591 0.751909
vt 0.351397 0.795466
vt 0.343750 0.843750
vt 0.351397 0.892034
vt 0.373591 0.935591
vt 0.408159 0.970159
vt 0.451716 0.992353
vt 0.500000 1.000000
vt 0.548284 0.992353
vt 0.591841 0.970159
vt 0.626409 0.935591
vt 0.648603 0.892034
vt 0.656250 0.843750
vt 0.500000 0.150000
vt 0.500000 0.837500
vn 0.594040 -0.742715 -0.309016
vn 0.505320 -0.631791 -0.587785
vn 0.505320 -0.631791 -0.587785
vn 0.594040 -0.742715 -0.309016
vn 0.367137 -0.459023 -0.809017
vn 0.367137 -0.459023 -0.809017
vn 0.193015 -0.241323 -0.951056
vn 0.193015 -0.241323 -0.951056
vn -0.000000 0.000000 -1.000000
vn -0.000000 0.000000 -1.000000
vn -0.193015 0.241323 -0.951057
vn -0.193015 0.241323 -0.951057
vn -0.367137 0.459023 -0.809017
vn -0.367137 0.459023 -0.809017
vn -0.505320 0.631791 -0.587785
vn -0.505320 0.631791 -0.587785
vn -0.594040 0.742715 -0.309017
vn -0.594040 0.742715 -0.309017
vn -0.624610 0.780937 0.000000
vn -0.624610 0.780937 0.000000
vn -0.594040 0.742715 0.309017
vn -0.594040 0.742715 0.309017
vn -0.505320 0.631791 0.587785
vn -0.505320 0.631791 0.587785
vn -0.367137 0.459023 0.809017
vn -0.367137 0.459023 0.809017
vn -0.193015 0.241323 0.951057
vn -0.193015 0.241323 0.951057
vn 0.000000 -0.000000 1.000000
vn 0.000000 -0.000000 1.000000
vn 0.193015 -0.241323 0.951057
vn 0.193015 -0.241323 0.951057
vn 0.367137 -0.459023 0.809017
vn 0.367137 -0.459023 0.809017
vn 0.505320 -0.631791 0.587785
vn 0.505320 -0.631791 0.587785
vn 0.594040 -0.742715 0.309017
vn 0.594040 -0.742715 0.309017
vn 0.624610 -0.780937 0.000001
vn 0.624610 -0.780937 0.000001
vn -0.780937 -0.624610 0.000000
vn -0.780937 -0.624610 0.000000
vn -0.780937 -0.624610 0.000000
vn -0.780937 -0.624610 0.000000
vn -0.780937 -0.624610 0.000000
vn -0.780937 -0.624610 0.000000
vn -0.780937 -0.624610 0.000000
vn -0.780937 -0.624610 0.000000
vn -0.780937 -0.624610 0.000000
vn -0.780937 -0.624610 0.000000
vn -0.780937 -0.624610 0.000000
vn -0.780937 -0.624610 0.000000
vn -0.780937 -0.624610 0.000000
vn -0.780937 -0.624610 0.000000
vn -0.780937 -0.624610 0.000000
vn -0.780937 -0.624610 0.000000
vn -0.780937 -0.624610 0.000000
vn -0.780937 -0.624610 0.000000
vn -0.780937 -0.624610 0.000000
vn -0.780937 -0.624610 0.000000
vn -0.780937 -0.624610 0.000000
vn 0.780937 0.624610 0.000001
vn 0.780936 0.624611 -0.000001
vn 0.780937 0.624610 0.000000
vn 0.780936 0.624610 -0.000001
vn 0.780937 0.624610 -0.000001
vn 0.780937 0.624610 -0.000001
vn 0.780937 0.624610 -0.000001
vn 0.780937 0.624610 -0.000000
vn 0.780936 0.624610 -0.000000
vn 0.780936 0.624611 -0.000000
vn 0.780936 0.624611 0.000000
vn 0.780936 0.624611 0.000000
vn 0.780936 0.624611 0.000000
vn 0.780937 0.624610 0.000000
vn 0.780937 0.624610 0.000001
vn 0.780937 0.624610 0.000001
vn 0.780937 0.624610 0.000001
vn 0.780937 0.624610 0.000000
vn 0.780937 0.624610 0.000000
vn 0.780937 0.624610 0.000000
vn 0.780937 0.624610 0.000001
s 1
g Button2
usemtl initialShadingGroup
f 43/105/83 44/106/84 64/127/85 63/126/86
f 44/106/84 45/107/87 65/128/88 64/127/85
f 45/107/87 46/108/89 66/129/90 65/128/88
f 46/108/89 47/109/91 67/130/92 66/129/90
f 47/109/91 48/110/93 68/131/94 67/130/92
f 48/110/93 49/111/95 69/132/96 68/131/94
f 49/111/95 50/112/97 70/133/98 69/132/96
f 50/112/97 51/113/99 71/134/100 70/133/98
f 51/113/99 52/114/101 72/135/102 71/134/100
f 52/114/101 53/115/103 73/136/104 72/135/102
f 53/115/103 54/116/105 74/137/106 73/136/104
f 54/116/105 55/117/107 75/138/108 74/137/106
f 55/117/107 56/118/109 76/139/110 75/138/108
f 56/118/109 57/119/111 77/140/112 76/139/110
f 57/119/111 58/120/113 78/141/114 77/140/112
f 58/120/113 59/121/115 79/142/116 78/141/114
f 59/121/115 60/122/117 80/143/118 79/142/116
f 60/122/117 61/123/119 81/144/120 80/143/118
f 61/123/119 62/124/121 82/145/122 81/144/120
f 62/124/121 43/125/83 63/146/86 82/145/122
s 2
f 44/86/123 43/85/124 83/167/125
f 45/87/126 44/86/123 83/167/125
f 46/88/127 45/87/126 83/167/125
f 47/89/128 46/88/127 83/167/125
f 48/90/129 47/89/128 83/167/125
f 49/91/130 48/90/129 83/167/125
f 50/92/131 49/91/130 83/167/125
f 51/93/132 50/92/131 83/167/125
f 52/94/133 51/93/132 83/167/125
f 53/95/134 52/94/133 83/167/125
f 54/96/135 53/95/134 83/167/125
f 55/97/136 54/96/135 83/167/125
f 56/98/137 55/97/136 83/167/125
f 57/99/138 56/98/137 83/167/125
f 58/100/139 57/99/138 83/167/125
f 59/101/140 58/100/139 83/167/125
f 60/102/141 59/101/140 83/167/125
f 61/103/142 60/102/141 83/167/125
f 62/104/143 61/103/142 83/167/125
f 43/85/124 62/104/143 83/167/125
s 3
f 63/165/144 64/164/145 84/168/146
f 64/164/145 65/163/147 84/168/146
f 65/163/147 66/162/148 84/168/146
f 66/162/148 67/161/149 84/168/146
f 67/161/149 68/160/150 84/168/146
f 68/160/150 69/159/151 84/168/146
f 69/159/151 70/158/152 84/168/146
f 70/158/152 71/157/153 84/168/146
f 71/157/153 72/156/154 84/168/146
f 72/156/154 73/155/155 84/168/146
f 73/155/155 74/154/156 84/168/146
f 74/154/156 75/153/157 84/168/146
f 75/153/157 76/152/158 84/168/146
f 76/152/158 77/151/159 84/168/146
f 77/151/159 78/150/160 84/168/146
f 78/150/160 79/149/161 84/168/146
f 79/149/161 80/148/162 84/168/146
f 80/148/162 81/147/163 84/168/146
f 81/147/163 82/166/164 84/168/146
f 82/166/164 63/165/144 84/168/146
g default
v -0.492357 -0.901069 -1.581712
v -0.480729 -0.818545 -1.236466
v -0.492174 -0.614721 -1.625294
v -0.480561 -0.559032 -1.279422
v -0.491789 -0.328890 -1.653255
v -0.480208 -0.299521 -1.307722
v -0.491204 -0.043765 -1.665982
v -0.479674 -0.040291 -1.321661
v -0.490422 0.240521 -1.663748
v -0.478962 0.218420 -1.321449
v -0.489445 0.523866 -1.646706
v -0.478072 0.476403 -1.307209
v -0.488274 0.806172 -1.614892
v -0.477006 0.733453 -1.278972
v -0.486907 1.087326 -1.568222
v -0.475764 0.989352 -1.236679
v -0.485344 1.367180 -1.506503
v -0.474346 1.243852 -1.180183
v -0.483584 1.645518 -1.429434
v -0.472751 1.496653 -1.109260
v -0.481797 1.907520 -1.354760
v -0.470990 1.756776 -1.029574
v 0.518035 1.900977 -1.351936
v 0.528842 1.750222 -1.026727
v 0.516247 1.638996 -1.426591
v 0.527080 1.490098 -1.106411
v 0.514491 1.361388 -1.503425
v 0.525489 1.238029 -1.177101
v 0.512932 1.082279 -1.564960
v 0.524074 0.984279 -1.233413
v 0.511568 0.801882 -1.611496
v 0.522835 0.729143 -1.275576
v 0.510398 0.520346 -1.643230
v 0.521772 0.472866 -1.303736
v 0.509424 0.237779 -1.660246
v 0.520884 0.215663 -1.317953
v 0.508644 -0.045726 -1.662508
v 0.520174 -0.042265 -1.318197
v 0.508060 -0.330070 -1.649864
v 0.519641 -0.300713 -1.304346
v 0.507675 -0.615123 -1.622043
v 0.519289 -0.559446 -1.276189
v 0.507493 -0.900700 -1.578656
v 0.519120 -0.818187 -1.233434
vt 0.375000 0.000000
vt 0.625000 0.000000
vt 0.375000 0.025000
vt 0.625000 0.025000
vt 0.375000 0.050000
vt 0.625000 0.050000
vt 0.375000 0.075000
vt 0.625000 0.075000
vt 0.375000 0.100000
vt 0.625000 0.100000
vt 0.375000 0.125000
vt 0.625000 0.125000
vt 0.375000 0.150000
vt 0.625000 0.150000
vt 0.375000 0.175000
vt 0.625000 0.175000
vt 0.375000 0.200000
vt 0.625000 0.200000
vt 0.375000 0.225000
vt 0.625000 0.225000
vt 0.375000 0.250000
vt 0.625000 0.250000
vt 0.375000 0.500000
vt 0.625000 0.500000
vt 0.375000 0.525000
vt 0.625000 0.525000
vt 0.375000 0.550000
vt 0.625000 0.550000
vt 0.375000 0.575000
vt 0.625000 0.575000
vt 0.375000 0.600000
vt 0.625000 0.600000
vt 0.375000 0.625000
vt 0.625000 0.625000
vt 0.375000 0.650000
vt 0.625000 0.650000
vt 0.375000 0.675000
vt 0.625000 0.675000
vt 0.375000 0.700000
vt 0.625000 0.700000
vt 0.375000 0.725000
vt 0.625000 0.725000
vt 0.375000 0.750000
vt 0.625000 0.750000
vt 0.375000 1.000000
vt 0.625000 1.000000
vt 0.875000 0.000000
vt 0.875000 0.025000
vt 0.875000 0.050000
vt 0.875000 0.075000
vt 0.875000 0.100000
vt 0.875000 0.125000
vt 0.875000 0.150000
vt 0.875000 0.175000
vt 0.875000 0.200000
vt 0.875000 0.225000
vt 0.875000 0.250000
vt 0.125000 0.000000
vt 0.125000 0.025000
vt 0.125000 0.050000
vt 0.125000 0.075000
vt 0.125000 0.100000
vt 0.125000 0.125000
vt 0.125000 0.150000
vt 0.125000 0.175000
vt 0.125000 0.200000
vt 0.125000 0.225000
vt 0.125000 0.250000
vn -0.999457 0.005789 0.032451
vn -0.999457 0.005789 0.032451
vn -0.999451 0.005268 0.032699
vn -0.999452 0.005287 0.032690
vn -0.999442 0.004221 0.033124
vn -0.999442 0.004227 0.033122
vn -0.999436 0.003150 0.033420
vn -0.999436 0.003141 0.033421
vn -0.999434 0.002064 0.033580
vn -0.999434 0.002041 0.033582
vn -0.999435 0.000975 0.033602
vn -0.999435 0.000937 0.033600
vn -0.999439 -0.000110 0.033484
vn -0.999440 -0.000162 0.033475
vn -0.999447 -0.001177 0.033227
vn -0.999448 -0.001242 0.033207
vn -0.999458 -0.002219 0.032835
vn -0.999459 -0.002295 0.032800
vn -0.999470 -0.002754 0.032430
vn -0.999471 -0.002751 0.032396
vn -0.999476 -0.002739 0.032242
vn -0.999476 -0.002739 0.032242
vn 0.004750 0.907309 0.420438
vn 0.004750 0.907309 0.420438
vn 0.004750 0.907309 0.420438
vn 0.004750 0.907309 0.420438
vn 0.999476 0.002736 -0.032241
vn 0.999476 0.002736 -0.032241
vn 0.999470 0.002749 -0.032430
vn 0.999471 0.002747 -0.032396
vn 0.999458 0.002212 -0.032836
vn 0.999459 0.002289 -0.032801
vn 0.999447 0.001173 -0.033228
vn 0.999448 0.001238 -0.033208
vn 0.999439 0.000106 -0.033484
vn 0.999440 0.000159 -0.033475
vn 0.999435 -0.000976 -0.033602
vn 0.999435 -0.000938 -0.033600
vn 0.999434 -0.002063 -0.033580
vn 0.999434 -0.002040 -0.033582
vn 0.999436 -0.003147 -0.033421
vn 0.999436 -0.003139 -0.033423
vn 0.999442 -0.004216 -0.033127
vn 0.999442 -0.004222 -0.033125
vn 0.999451 -0.005261 -0.032702
vn 0.999452 -0.005281 -0.032693
vn 0.999456 -0.005782 -0.032455
vn 0.999457 -0.005782 -0.032455
vn -0.000355 -0.972600 0.232485
vn -0.000355 -0.972600 0.232485
vn -0.000355 -0.972600 0.232485
vn -0.000355 -0.972600 0.232485
vn -0.003086 0.163170 0.986593
vn -0.003086 0.163170 0.986593
vn -0.003143 0.135891 0.990719
vn -0.003143 0.135896 0.990718
vn -0.003265 0.081059 0.996704
vn -0.003265 0.081067 0.996703
vn -0.003408 0.026419 0.999645
vn -0.003407 0.026431 0.999645
vn -0.003569 -0.028006 0.999601
vn -0.003569 -0.027991 0.999602
vn -0.003749 -0.082217 0.996607
vn -0.003749 -0.082198 0.996609
vn -0.003949 -0.136214 0.990672
vn -0.003949 -0.136192 0.990675
vn -0.004167 -0.189997 0.981776
vn -0.004167 -0.189971 0.981781
vn -0.004406 -0.243551 0.969878
vn -0.004406 -0.243522 0.969885
vn -0.004587 -0.281691 0.959494
vn -0.004587 -0.281679 0.959498
vn -0.004644 -0.292867 0.956142
vn -0.004644 -0.292867 0.956142
vn 0.003115 -0.150338 -0.988630
vn 0.003115 -0.150338 -0.988630
vn 0.003173 -0.123955 -0.992283
vn 0.003173 -0.123949 -0.992284
vn 0.003295 -0.070995 -0.997471
vn 0.003295 -0.070986 -0.997472
vn 0.003434 -0.018366 -0.999825
vn 0.003434 -0.018353 -0.999826
vn 0.003590 0.033969 -0.999417
vn 0.003590 0.033984 -0.999416
vn 0.003763 0.086051 -0.996284
vn 0.003763 0.086070 -0.996282
vn 0.003952 0.137927 -0.990435
vn 0.003952 0.137949 -0.990431
vn 0.004158 0.189637 -0.981845
vn 0.004158 0.189663 -0.981841
vn 0.004382 0.241208 -0.970464
vn 0.004382 0.241237 -0.970456
vn 0.004506 0.270302 -0.962765
vn 0.004506 0.270305 -0.962764
vn 0.004515 0.274043 -0.961707
vn 0.004515 0.274043 -0.961707
s 1
g pCube13 Latch
usemtl initialShadingGroup
f 85/169/165 86/170/166 88/172/167 87/171/168
f 87/171/168 88/172/167 90/174/169 89/173/170
f 89/173/170 90/174/169 92/176/171 91/175/172
f 91/175/172 92/176/171 94/178/173 93/177/174
f 93/177/174 94/178/173 96/180/175 95/179/176
f 95/179/176 96/180/175 98/182/177 97/181/178
f 97/181/178 98/182/177 100/184/179 99/183/180
f 99/183/180 100/184/179 102/186/181 101/185/182
f 101/185/182 102/186/181 104/188/183 103/187/184
f 103/187/184 104/188/183 106/190/185 105/189/186
s off
f 105/189/187 106/190/188 108/192/189 107/191/190
s 2
f 107/191/191 108/192/192 110/194/193 109/193/194
f 109/193/194 110/194/193 112/196/195 111/195/196
f 111/195/196 112/196/195 114/198/197 113/197/198
f 113/197/198 114/198/197 116/200/199 115/199/200
f 115/199/200 116/200/199 118/202/201 117/201/202
f 117/201/202 118/202/201 120/204/203 119/203/204
f 119/203/204 120/204/203 122/206/205 121/205/206
f 121/205/206 122/206/205 124/208/207 123/207/208
f 123/207/208 124/208/207 126/210/209 125/209/210
f 125/209/210 126/210/209 128/212/211 127/211/212
s off
f 127/211/213 128/212/214 86/214/215 85/213/216
s 3
f 86/170/217 128/215/218 126/216/219 88/172/220
f 88/172/220 126/216/219 124/217/221 90/174/222
f 90/174/222 124/217/221 122/218/223 92/176/224
f 92/176/224 122/218/223 120/219/225 94/178/226
f 94/178/226 120/219/225 118/220/227 96/180/228
f 96/180/228 118/220/227 116/221/229 98/182/230
f 98/182/230 116/221/229 114/222/231 100/184/232
f 100/184/232 114/222/231 112/223/233 102/186/234
f 102/186/234 112/223/233 110/224/235 104/188/236
f 104/188/236 110/224/235 108/225/237 106/190/238
s 4
f 127/226/239 85/169/240 87/171/241 125/227/242
f 125/227/242 87/171/241 89/173/243 123/228/244
f 123/228/244 89/173/243 91/175/245 121/229/246
f 121/229/246 91/175/245 93/177/247 119/230/248
f 119/230/248 93/177/247 95/179/249 117/231/250
f 117/231/250 95/179/249 97/181/251 115/232/252
f 115/232/252 97/181/251 99/183/253 113/233/254
f 113/233/254 99/183/253 101/185/255 111/234/256
f 111/234/256 101/185/255 103/187/257 109/235/258
f 109/235/258 103/187/257 105/189/259 107/236/260
g default
v 0.501625 -0.910421 -1.603048
v -0.498232 -0.910770 -1.619953
v 0.495356 -0.811370 -1.233770
v -0.504502 -0.811717 -1.250674
v 0.491307 -1.778570 -0.972084
v -0.508550 -1.778919 -0.988988
v 0.497577 -1.877623 -1.341362
v -0.502281 -1.877971 -1.358267
vt 0.375000 0.000000
vt 0.625000 0.000000
vt 0.375000 0.250000
vt 0.625000 0.250000
vt 0.375000 0.500000
vt 0.625000 0.500000
vt 0.375000 0.750000
vt 0.625000 0.750000
vt 0.375000 1.000000
vt 0.625000 1.000000
vt 0.875000 0.000000
vt 0.875000 0.250000
vt 0.125000 0.000000
vt 0.125000 0.250000
vn 0.004043 0.965867 -0.259007
vn 0.004043 0.965867 -0.259007
vn 0.004043 0.965867 -0.259007
vn 0.004043 0.965867 -0.259007
vn -0.016409 0.261199 0.965146
vn -0.016409 0.261199 0.965146
vn -0.016409 0.261199 0.965146
vn -0.016409 0.261199 0.965146
vn -0.004043 -0.965867 0.259007
vn -0.004043 -0.965867 0.259007
vn -0.004043 -0.965867 0.259007
vn -0.004043 -0.965867 0.259007
vn 0.016409 -0.261199 -0.965146
vn 0.016409 -0.261199 -0.965146
vn 0.016409 -0.261199 -0.965146
vn 0.016409 -0.261199 -0.965146
vn -0.999858 -0.000380 -0.016873
vn -0.999858 -0.000380 -0.016873
vn -0.999858 -0.000380 -0.016873
vn -0.999858 -0.000380 -0.016873
vn 0.999858 0.000380 0.016873
vn 0.999858 0.000380 0.016873
vn 0.999858 0.000380 0.016873
vn 0.999858 0.000380 0.016873
s off
g Latch pCube14
usemtl initialShadingGroup
f 129/237/261 130/238/262 132/240/263 131/239/264
f 131/239/265 132/240/266 134/242/267 133/241/268
f 133/241/269 134/242/270 136/244/271 135/243/272
f 135/243/273 136/244/274 130/246/275 129/245/276
f 130/238/277 136/247/278 134/248/279 132/240/280
f 135/249/281 129/237/282 131/239/283 133/250/284
